<svg width="155" height="35" viewBox="0 0 155 35" fill="none" xmlns="http://www.w3.org/2000/svg">
<path d="M0 17.5C0 7.83502 7.83502 0 17.5 0H79V35H17.5C7.83502 35 0 27.165 0 17.5V17.5Z" fill="black"/>
<g style="mix-blend-mode:darken">
<rect x="3.5" y="0.5" width="151" height="34" rx="17" fill="#D9D9D9"/>
<rect x="3.5" y="0.5" width="151" height="34" rx="17" stroke="black"/>
</g>
<path d="M118 11.2783C118.183 11.5004 118.245 11.8352 118.081 12.1361C117.52 13.1647 117.202 14.343 117.202 15.5969C117.202 19.6173 120.48 22.8727 124.52 22.8727C125.047 22.8727 125.559 22.8175 126.053 22.7129C126.391 22.6413 126.698 22.794 126.863 23.0286C127.033 23.2707 127.069 23.6318 126.832 23.9224C125.303 25.7985 122.965 27 120.344 27C115.733 27 112 23.2863 112 18.71C112 15.2658 114.114 12.312 117.124 11.0601C117.471 10.9154 117.812 11.0491 118 11.2783Z" fill="black"/>
<path d="M36 21C38.2091 21 40 19.2091 40 17C40 14.7909 38.2091 13 36 13C33.7909 13 32 14.7909 32 17C32 19.2091 33.7909 21 36 21Z" fill="#EEFF00"/>
<path d="M36 9C36.2761 9 36.5 9.22386 36.5 9.5V11.5C36.5 11.7761 36.2761 12 36 12C35.7239 12 35.5 11.7761 35.5 11.5V9.5C35.5 9.22386 35.7239 9 36 9Z" fill="#EEFF00"/>
<path d="M36 22C36.2761 22 36.5 22.2239 36.5 22.5V24.5C36.5 24.7761 36.2761 25 36 25C35.7239 25 35.5 24.7761 35.5 24.5V22.5C35.5 22.2239 35.7239 22 36 22Z" fill="#EEFF00"/>
<path d="M44 17C44 17.2761 43.7761 17.5 43.5 17.5H41.5C41.2239 17.5 41 17.2761 41 17C41 16.7239 41.2239 16.5 41.5 16.5H43.5C43.7761 16.5 44 16.7239 44 17Z" fill="#EEFF00"/>
<path d="M31 17C31 17.2761 30.7761 17.5 30.5 17.5H28.5C28.2239 17.5 28 17.2761 28 17C28 16.7239 28.2239 16.5 28.5 16.5H30.5C30.7761 16.5 31 16.7239 31 17Z" fill="#EEFF00"/>
<path d="M41.6569 11.3432C41.8521 11.5384 41.8521 11.855 41.6569 12.0503L40.2426 13.4645C40.0474 13.6598 39.7308 13.6598 39.5355 13.4645C39.3403 13.2692 39.3403 12.9527 39.5355 12.7574L40.9497 11.3432C41.145 11.1479 41.4616 11.1479 41.6569 11.3432Z" fill="#EEFF00"/>
<path d="M32.4645 20.5356C32.6597 20.7308 32.6597 21.0474 32.4645 21.2427L31.0503 22.6569C30.855 22.8521 30.5384 22.8521 30.3431 22.6569C30.1479 22.4616 30.1479 22.145 30.3431 21.9498L31.7574 20.5356C31.9526 20.3403 32.2692 20.3403 32.4645 20.5356Z" fill="#EEFF00"/>
<path d="M41.6569 22.6569C41.4616 22.8522 41.145 22.8522 40.9497 22.6569L39.5355 21.2427C39.3403 21.0474 39.3403 20.7308 39.5355 20.5356C39.7308 20.3403 40.0474 20.3403 40.2426 20.5356L41.6569 21.9498C41.8521 22.1451 41.8521 22.4616 41.6569 22.6569Z" fill="#EEFF00"/>
<path d="M32.4645 13.4645C32.2692 13.6598 31.9526 13.6598 31.7574 13.4645L30.3431 12.0503C30.1479 11.855 30.1479 11.5385 30.3431 11.3432C30.5384 11.1479 30.855 11.1479 31.0503 11.3432L32.4645 12.7574C32.6597 12.9527 32.6597 13.2692 32.4645 13.4645Z" fill="#EEFF00"/>
</svg>
