<svg width="160" height="43" viewBox="0 0 160 43" fill="none" xmlns="http://www.w3.org/2000/svg">
<g style="mix-blend-mode:multiply" filter="url(#filter0_d_14_193)">
<rect x="4" width="152" height="35" rx="17.5" fill="#011E3A"/>
<rect x="4.5" y="0.5" width="151" height="34" rx="17" stroke="black"/>
</g>
<path d="M44 23C46.2091 23 48 21.2091 48 19C48 16.7909 46.2091 15 44 15C41.7909 15 40 16.7909 40 19C40 21.2091 41.7909 23 44 23Z" fill="#EEFF00"/>
<path d="M44 11C44.2761 11 44.5 11.2239 44.5 11.5V13.5C44.5 13.7761 44.2761 14 44 14C43.7239 14 43.5 13.7761 43.5 13.5V11.5C43.5 11.2239 43.7239 11 44 11Z" fill="#EEFF00"/>
<path d="M44 24C44.2761 24 44.5 24.2239 44.5 24.5V26.5C44.5 26.7761 44.2761 27 44 27C43.7239 27 43.5 26.7761 43.5 26.5V24.5C43.5 24.2239 43.7239 24 44 24Z" fill="#EEFF00"/>
<path d="M52 19C52 19.2761 51.7761 19.5 51.5 19.5H49.5C49.2239 19.5 49 19.2761 49 19C49 18.7239 49.2239 18.5 49.5 18.5H51.5C51.7761 18.5 52 18.7239 52 19Z" fill="#EEFF00"/>
<path d="M39 19C39 19.2761 38.7761 19.5 38.5 19.5H36.5C36.2239 19.5 36 19.2761 36 19C36 18.7239 36.2239 18.5 36.5 18.5H38.5C38.7761 18.5 39 18.7239 39 19Z" fill="#EEFF00"/>
<path d="M49.6569 13.3432C49.8521 13.5384 49.8521 13.855 49.6569 14.0503L48.2426 15.4645C48.0474 15.6598 47.7308 15.6598 47.5355 15.4645C47.3403 15.2692 47.3403 14.9527 47.5355 14.7574L48.9497 13.3432C49.145 13.1479 49.4616 13.1479 49.6569 13.3432Z" fill="#EEFF00"/>
<path d="M40.4645 22.5356C40.6597 22.7308 40.6597 23.0474 40.4645 23.2427L39.0503 24.6569C38.855 24.8521 38.5384 24.8521 38.3431 24.6569C38.1479 24.4616 38.1479 24.145 38.3431 23.9498L39.7574 22.5356C39.9526 22.3403 40.2692 22.3403 40.4645 22.5356Z" fill="#EEFF00"/>
<path d="M49.6569 24.6569C49.4616 24.8522 49.145 24.8522 48.9497 24.6569L47.5355 23.2427C47.3403 23.0474 47.3403 22.7308 47.5355 22.5356C47.7308 22.3403 48.0474 22.3403 48.2426 22.5356L49.6569 23.9498C49.8521 24.1451 49.8521 24.4616 49.6569 24.6569Z" fill="#EEFF00"/>
<path d="M40.4645 15.4645C40.2692 15.6598 39.9526 15.6598 39.7574 15.4645L38.3431 14.0503C38.1479 13.855 38.1479 13.5385 38.3431 13.3432C38.5384 13.1479 38.855 13.1479 39.0503 13.3432L40.4645 14.7574C40.6597 14.9527 40.6597 15.2692 40.4645 15.4645Z" fill="#EEFF00"/>
<path d="M156 17.5C156 27.165 148.165 35 138.5 35H81V0H138.5C148.165 0 156 7.83502 156 17.5V17.5Z" fill="#D9D9D9"/>
<path d="M115 11.2783C115.183 11.5004 115.245 11.8352 115.081 12.1361C114.52 13.1647 114.202 14.343 114.202 15.5969C114.202 19.6173 117.48 22.8727 121.52 22.8727C122.047 22.8727 122.559 22.8175 123.053 22.7129C123.391 22.6413 123.698 22.794 123.863 23.0286C124.033 23.2707 124.069 23.6318 123.832 23.9224C122.303 25.7985 119.965 27 117.344 27C112.733 27 109 23.2863 109 18.71C109 15.2658 111.114 12.312 114.124 11.0601C114.471 10.9154 114.812 11.0491 115 11.2783Z" fill="black"/>
<defs>
<filter id="filter0_d_14_193" x="0" y="0" width="160" height="43" filterUnits="userSpaceOnUse" color-interpolation-filters="sRGB">
<feFlood flood-opacity="0" result="BackgroundImageFix"/>
<feColorMatrix in="SourceAlpha" type="matrix" values="0 0 0 0 0 0 0 0 0 0 0 0 0 0 0 0 0 0 127 0" result="hardAlpha"/>
<feOffset dy="4"/>
<feGaussianBlur stdDeviation="2"/>
<feComposite in2="hardAlpha" operator="out"/>
<feColorMatrix type="matrix" values="0 0 0 0 0 0 0 0 0 0 0 0 0 0 0 0 0 0 0.25 0"/>
<feBlend mode="normal" in2="BackgroundImageFix" result="effect1_dropShadow_14_193"/>
<feBlend mode="normal" in="SourceGraphic" in2="effect1_dropShadow_14_193" result="shape"/>
</filter>
</defs>
</svg>
