<svg width="155" height="35" viewBox="0 0 155 35" fill="none" xmlns="http://www.w3.org/2000/svg">
<path d="M0 17.5C0 7.83502 7.83502 0 17.5 0H79V35H17.5C7.83502 35 0 27.165 0 17.5V17.5Z" fill="black"/>
<g style="mix-blend-mode:darken">
<rect x="3.5" y="0.5" width="151" height="34" rx="17" fill="#D9D9D9"/>
<rect x="3.5" y="0.5" width="151" height="34" rx="17" stroke="black"/>
</g>
<path d="M105 9.2783C105.183 9.50044 105.245 9.83521 105.081 10.1361C104.52 11.1647 104.202 12.343 104.202 13.5969C104.202 17.6173 107.48 20.8727 111.52 20.8727C112.047 20.8727 112.559 20.8175 113.053 20.7129C113.391 20.6413 113.698 20.794 113.863 21.0286C114.033 21.2707 114.069 21.6318 113.832 21.9224C112.303 23.7985 109.965 25 107.344 25C102.733 25 99 21.2863 99 16.71C99 13.2658 101.114 10.312 104.124 9.06009C104.471 8.91545 104.812 9.04909 105 9.2783Z" fill="black"/>
<path d="M48 20C50.2091 20 52 18.2091 52 16C52 13.7909 50.2091 12 48 12C45.7909 12 44 13.7909 44 16C44 18.2091 45.7909 20 48 20Z" fill="#EEFF00"/>
<path d="M48 8C48.2761 8 48.5 8.22386 48.5 8.5V10.5C48.5 10.7761 48.2761 11 48 11C47.7239 11 47.5 10.7761 47.5 10.5V8.5C47.5 8.22386 47.7239 8 48 8Z" fill="#EEFF00"/>
<path d="M48 21C48.2761 21 48.5 21.2239 48.5 21.5V23.5C48.5 23.7761 48.2761 24 48 24C47.7239 24 47.5 23.7761 47.5 23.5V21.5C47.5 21.2239 47.7239 21 48 21Z" fill="#EEFF00"/>
<path d="M56 16C56 16.2761 55.7761 16.5 55.5 16.5H53.5C53.2239 16.5 53 16.2761 53 16C53 15.7239 53.2239 15.5 53.5 15.5H55.5C55.7761 15.5 56 15.7239 56 16Z" fill="#EEFF00"/>
<path d="M43 16C43 16.2761 42.7761 16.5 42.5 16.5H40.5C40.2239 16.5 40 16.2761 40 16C40 15.7239 40.2239 15.5 40.5 15.5H42.5C42.7761 15.5 43 15.7239 43 16Z" fill="#EEFF00"/>
<path d="M53.6569 10.3432C53.8521 10.5384 53.8521 10.855 53.6569 11.0503L52.2426 12.4645C52.0474 12.6598 51.7308 12.6598 51.5355 12.4645C51.3403 12.2692 51.3403 11.9527 51.5355 11.7574L52.9497 10.3432C53.145 10.1479 53.4616 10.1479 53.6569 10.3432Z" fill="#EEFF00"/>
<path d="M44.4645 19.5356C44.6597 19.7308 44.6597 20.0474 44.4645 20.2427L43.0503 21.6569C42.855 21.8521 42.5384 21.8521 42.3431 21.6569C42.1479 21.4616 42.1479 21.145 42.3431 20.9498L43.7574 19.5356C43.9526 19.3403 44.2692 19.3403 44.4645 19.5356Z" fill="#EEFF00"/>
<path d="M53.6569 21.6569C53.4616 21.8522 53.145 21.8522 52.9497 21.6569L51.5355 20.2427C51.3403 20.0474 51.3403 19.7308 51.5355 19.5356C51.7308 19.3403 52.0474 19.3403 52.2426 19.5356L53.6569 20.9498C53.8521 21.1451 53.8521 21.4616 53.6569 21.6569Z" fill="#EEFF00"/>
<path d="M44.4645 12.4645C44.2692 12.6598 43.9526 12.6598 43.7574 12.4645L42.3431 11.0503C42.1479 10.855 42.1479 10.5385 42.3431 10.3432C42.5384 10.1479 42.855 10.1479 43.0503 10.3432L44.4645 11.7574C44.6597 11.9527 44.6597 12.2692 44.4645 12.4645Z" fill="#EEFF00"/>
</svg>
