<svg width="103" height="103" viewBox="0 0 103 103" fill="none" xmlns="http://www.w3.org/2000/svg">
<rect x="0.5" y="0.5" width="102" height="102" fill="#DBE4DC" stroke="black"/>
<path d="M70 76.4773C67.4318 76.4773 65.2443 75.7784 63.4375 74.3807C61.6307 72.9716 60.25 70.9318 59.2955 68.2614C58.3409 65.5795 57.8636 62.3409 57.8636 58.5455C57.8636 54.7727 58.3409 51.5511 59.2955 48.8807C60.2614 46.1989 61.6477 44.1534 63.4545 42.7443C65.2727 41.3239 67.4545 40.6136 70 40.6136C72.5455 40.6136 74.7216 41.3239 76.5284 42.7443C78.3466 44.1534 79.733 46.1989 80.6875 48.8807C81.6534 51.5511 82.1364 54.7727 82.1364 58.5455C82.1364 62.3409 81.6591 65.5795 80.7045 68.2614C79.75 70.9318 78.3693 72.9716 76.5625 74.3807C74.7557 75.7784 72.5682 76.4773 70 76.4773ZM70 72.7273C72.5455 72.7273 74.5227 71.5 75.9318 69.0455C77.3409 66.5909 78.0455 63.0909 78.0455 58.5455C78.0455 55.5227 77.7216 52.9489 77.0739 50.8239C76.4375 48.6989 75.517 47.0795 74.3125 45.9659C73.1193 44.8523 71.6818 44.2955 70 44.2955C67.4773 44.2955 65.5057 45.5398 64.0852 48.0284C62.6648 50.5057 61.9545 54.0114 61.9545 58.5455C61.9545 61.5682 62.2727 64.1364 62.9091 66.25C63.5455 68.3636 64.4602 69.9716 65.6534 71.0739C66.858 72.1761 68.3068 72.7273 70 72.7273Z" fill="black"/>
<path d="M37 76.4773C34.4318 76.4773 32.2443 75.7784 30.4375 74.3807C28.6307 72.9716 27.25 70.9318 26.2955 68.2614C25.3409 65.5795 24.8636 62.3409 24.8636 58.5455C24.8636 54.7727 25.3409 51.5511 26.2955 48.8807C27.2614 46.1989 28.6477 44.1534 30.4545 42.7443C32.2727 41.3239 34.4545 40.6136 37 40.6136C39.5455 40.6136 41.7216 41.3239 43.5284 42.7443C45.3466 44.1534 46.733 46.1989 47.6875 48.8807C48.6534 51.5511 49.1364 54.7727 49.1364 58.5455C49.1364 62.3409 48.6591 65.5795 47.7045 68.2614C46.75 70.9318 45.3693 72.9716 43.5625 74.3807C41.7557 75.7784 39.5682 76.4773 37 76.4773ZM37 72.7273C39.5455 72.7273 41.5227 71.5 42.9318 69.0455C44.3409 66.5909 45.0455 63.0909 45.0455 58.5455C45.0455 55.5227 44.7216 52.9489 44.0739 50.8239C43.4375 48.6989 42.517 47.0795 41.3125 45.9659C40.1193 44.8523 38.6818 44.2955 37 44.2955C34.4773 44.2955 32.5057 45.5398 31.0852 48.0284C29.6648 50.5057 28.9545 54.0114 28.9545 58.5455C28.9545 61.5682 29.2727 64.1364 29.9091 66.25C30.5455 68.3636 31.4602 69.9716 32.6534 71.0739C33.858 72.1761 35.3068 72.7273 37 72.7273Z" fill="black"/>
</svg>
