<svg width="111" height="111" viewBox="0 0 111 111" fill="none" xmlns="http://www.w3.org/2000/svg">
<g filter="url(#filter0_d_14_181)">
<rect x="4" width="103" height="103" fill="#1E1E1E"/>
<rect x="4.5" y="0.5" width="102" height="102" stroke="#D9D9D9"/>
</g>
<path d="M40 71.4773C37.4318 71.4773 35.2443 70.7784 33.4375 69.3807C31.6307 67.9716 30.25 65.9318 29.2955 63.2614C28.3409 60.5795 27.8636 57.3409 27.8636 53.5455C27.8636 49.7727 28.3409 46.5511 29.2955 43.8807C30.2614 41.1989 31.6477 39.1534 33.4545 37.7443C35.2727 36.3239 37.4545 35.6136 40 35.6136C42.5455 35.6136 44.7216 36.3239 46.5284 37.7443C48.3466 39.1534 49.733 41.1989 50.6875 43.8807C51.6534 46.5511 52.1364 49.7727 52.1364 53.5455C52.1364 57.3409 51.6591 60.5795 50.7045 63.2614C49.75 65.9318 48.3693 67.9716 46.5625 69.3807C44.7557 70.7784 42.5682 71.4773 40 71.4773ZM40 67.7273C42.5455 67.7273 44.5227 66.5 45.9318 64.0455C47.3409 61.5909 48.0455 58.0909 48.0455 53.5455C48.0455 50.5227 47.7216 47.9489 47.0739 45.8239C46.4375 43.6989 45.517 42.0795 44.3125 40.9659C43.1193 39.8523 41.6818 39.2955 40 39.2955C37.4773 39.2955 35.5057 40.5398 34.0852 43.0284C32.6648 45.5057 31.9545 49.0114 31.9545 53.5455C31.9545 56.5682 32.2727 59.1364 32.9091 61.25C33.5455 63.3636 34.4602 64.9716 35.6534 66.0739C36.858 67.1761 38.3068 67.7273 40 67.7273Z" fill="white"/>
<path d="M70 71.4773C67.4318 71.4773 65.2443 70.7784 63.4375 69.3807C61.6307 67.9716 60.25 65.9318 59.2955 63.2614C58.3409 60.5795 57.8636 57.3409 57.8636 53.5455C57.8636 49.7727 58.3409 46.5511 59.2955 43.8807C60.2614 41.1989 61.6477 39.1534 63.4545 37.7443C65.2727 36.3239 67.4545 35.6136 70 35.6136C72.5455 35.6136 74.7216 36.3239 76.5284 37.7443C78.3466 39.1534 79.733 41.1989 80.6875 43.8807C81.6534 46.5511 82.1364 49.7727 82.1364 53.5455C82.1364 57.3409 81.6591 60.5795 80.7045 63.2614C79.75 65.9318 78.3693 67.9716 76.5625 69.3807C74.7557 70.7784 72.5682 71.4773 70 71.4773ZM70 67.7273C72.5455 67.7273 74.5227 66.5 75.9318 64.0455C77.3409 61.5909 78.0455 58.0909 78.0455 53.5455C78.0455 50.5227 77.7216 47.9489 77.0739 45.8239C76.4375 43.6989 75.517 42.0795 74.3125 40.9659C73.1193 39.8523 71.6818 39.2955 70 39.2955C67.4773 39.2955 65.5057 40.5398 64.0852 43.0284C62.6648 45.5057 61.9545 49.0114 61.9545 53.5455C61.9545 56.5682 62.2727 59.1364 62.9091 61.25C63.5455 63.3636 64.4602 64.9716 65.6534 66.0739C66.858 67.1761 68.3068 67.7273 70 67.7273Z" fill="white"/>
<defs>
<filter id="filter0_d_14_181" x="0" y="0" width="111" height="111" filterUnits="userSpaceOnUse" color-interpolation-filters="sRGB">
<feFlood flood-opacity="0" result="BackgroundImageFix"/>
<feColorMatrix in="SourceAlpha" type="matrix" values="0 0 0 0 0 0 0 0 0 0 0 0 0 0 0 0 0 0 127 0" result="hardAlpha"/>
<feOffset dy="4"/>
<feGaussianBlur stdDeviation="2"/>
<feComposite in2="hardAlpha" operator="out"/>
<feColorMatrix type="matrix" values="0 0 0 0 0 0 0 0 0 0 0 0 0 0 0 0 0 0 0.25 0"/>
<feBlend mode="normal" in2="BackgroundImageFix" result="effect1_dropShadow_14_181"/>
<feBlend mode="normal" in="SourceGraphic" in2="effect1_dropShadow_14_181" result="shape"/>
</filter>
</defs>
</svg>
