<svg width="160" height="43" viewBox="0 0 160 43" fill="none" xmlns="http://www.w3.org/2000/svg">
<g style="mix-blend-mode:multiply" filter="url(#filter0_d_14_193)">
<rect x="4" width="152" height="35" rx="17.5" fill="#D9D9D9"/>
<rect x="4.5" y="0.5" width="151" height="34" rx="17" stroke="black"/>
</g>
<path d="M43 19C45.2091 19 47 17.2091 47 15C47 12.7909 45.2091 11 43 11C40.7909 11 39 12.7909 39 15C39 17.2091 40.7909 19 43 19Z" fill="#EEFF00"/>
<path d="M43 7C43.2761 7 43.5 7.22386 43.5 7.5V9.5C43.5 9.77614 43.2761 10 43 10C42.7239 10 42.5 9.77614 42.5 9.5V7.5C42.5 7.22386 42.7239 7 43 7Z" fill="#EEFF00"/>
<path d="M43 20C43.2761 20 43.5 20.2239 43.5 20.5V22.5C43.5 22.7761 43.2761 23 43 23C42.7239 23 42.5 22.7761 42.5 22.5V20.5C42.5 20.2239 42.7239 20 43 20Z" fill="#EEFF00"/>
<path d="M51 15C51 15.2761 50.7761 15.5 50.5 15.5H48.5C48.2239 15.5 48 15.2761 48 15C48 14.7239 48.2239 14.5 48.5 14.5H50.5C50.7761 14.5 51 14.7239 51 15Z" fill="#EEFF00"/>
<path d="M38 15C38 15.2761 37.7761 15.5 37.5 15.5H35.5C35.2239 15.5 35 15.2761 35 15C35 14.7239 35.2239 14.5 35.5 14.5H37.5C37.7761 14.5 38 14.7239 38 15Z" fill="#EEFF00"/>
<path d="M48.6569 9.34318C48.8521 9.53844 48.8521 9.85502 48.6569 10.0503L47.2426 11.4645C47.0474 11.6598 46.7308 11.6598 46.5355 11.4645C46.3403 11.2692 46.3403 10.9527 46.5355 10.7574L47.9497 9.34318C48.145 9.14792 48.4616 9.14792 48.6569 9.34318Z" fill="#EEFF00"/>
<path d="M39.4645 18.5356C39.6597 18.7308 39.6597 19.0474 39.4645 19.2427L38.0503 20.6569C37.855 20.8521 37.5384 20.8521 37.3431 20.6569C37.1479 20.4616 37.1479 20.145 37.3431 19.9498L38.7574 18.5356C38.9526 18.3403 39.2692 18.3403 39.4645 18.5356Z" fill="#EEFF00"/>
<path d="M48.6569 20.6569C48.4616 20.8522 48.145 20.8522 47.9497 20.6569L46.5355 19.2427C46.3403 19.0474 46.3403 18.7308 46.5355 18.5356C46.7308 18.3403 47.0474 18.3403 47.2426 18.5356L48.6569 19.9498C48.8521 20.1451 48.8521 20.4616 48.6569 20.6569Z" fill="#EEFF00"/>
<path d="M39.4645 11.4645C39.2692 11.6598 38.9526 11.6598 38.7574 11.4645L37.3431 10.0503C37.1479 9.85503 37.1479 9.53845 37.3431 9.34319C37.5384 9.14793 37.855 9.14793 38.0503 9.34319L39.4645 10.7574C39.6597 10.9527 39.6597 11.2692 39.4645 11.4645Z" fill="#EEFF00"/>
<path d="M156 17.5C156 27.165 148.165 35 138.5 35H77V0H138.5C148.165 0 156 7.83502 156 17.5V17.5Z" fill="#D9D9D9"/>
<path d="M119 11.2783C119.183 11.5004 119.245 11.8352 119.081 12.1361C118.52 13.1647 118.202 14.343 118.202 15.5969C118.202 19.6173 121.48 22.8727 125.52 22.8727C126.047 22.8727 126.559 22.8175 127.053 22.7129C127.391 22.6413 127.698 22.794 127.863 23.0286C128.033 23.2707 128.069 23.6318 127.832 23.9224C126.303 25.7985 123.965 27 121.344 27C116.733 27 113 23.2863 113 18.71C113 15.2658 115.114 12.312 118.124 11.0601C118.471 10.9154 118.812 11.0491 119 11.2783Z" fill="black"/>
<defs>
<filter id="filter0_d_14_193" x="0" y="0" width="160" height="43" filterUnits="userSpaceOnUse" color-interpolation-filters="sRGB">
<feFlood flood-opacity="0" result="BackgroundImageFix"/>
<feColorMatrix in="SourceAlpha" type="matrix" values="0 0 0 0 0 0 0 0 0 0 0 0 0 0 0 0 0 0 127 0" result="hardAlpha"/>
<feOffset dy="4"/>
<feGaussianBlur stdDeviation="2"/>
<feComposite in2="hardAlpha" operator="out"/>
<feColorMatrix type="matrix" values="0 0 0 0 0 0 0 0 0 0 0 0 0 0 0 0 0 0 0.25 0"/>
<feBlend mode="normal" in2="BackgroundImageFix" result="effect1_dropShadow_14_193"/>
<feBlend mode="normal" in="SourceGraphic" in2="effect1_dropShadow_14_193" result="shape"/>
</filter>
</defs>
</svg>
