<svg width="100" height="40" viewBox="0 0 100 40" fill="none" xmlns="http://www.w3.org/2000/svg">
<rect width="100" height="40" rx="20" fill="#13057E"/>
<path d="M41.892 23.444H36.654L35.754 26H33.612L38.094 13.472H40.47L44.952 26H42.792L41.892 23.444ZM41.316 21.77L39.282 15.956L37.23 21.77H41.316ZM46.2168 20.996C46.2168 20 46.4208 19.118 46.8288 18.35C47.2488 17.582 47.8128 16.988 48.5208 16.568C49.2408 16.136 50.0388 15.92 50.9148 15.92C51.5628 15.92 52.1988 16.064 52.8228 16.352C53.4588 16.628 53.9628 17 54.3348 17.468V12.68H56.4048V26H54.3348V24.506C53.9988 24.986 53.5308 25.382 52.9308 25.694C52.3428 26.006 51.6648 26.162 50.8968 26.162C50.0328 26.162 49.2408 25.946 48.5208 25.514C47.8128 25.07 47.2488 24.458 46.8288 23.678C46.4208 22.886 46.2168 21.992 46.2168 20.996ZM54.3348 21.032C54.3348 20.348 54.1908 19.754 53.9028 19.25C53.6268 18.746 53.2608 18.362 52.8048 18.098C52.3488 17.834 51.8568 17.702 51.3288 17.702C50.8008 17.702 50.3088 17.834 49.8528 18.098C49.3968 18.35 49.0248 18.728 48.7368 19.232C48.4608 19.724 48.3228 20.312 48.3228 20.996C48.3228 21.68 48.4608 22.28 48.7368 22.796C49.0248 23.312 49.3968 23.708 49.8528 23.984C50.3208 24.248 50.8128 24.38 51.3288 24.38C51.8568 24.38 52.3488 24.248 52.8048 23.984C53.2608 23.72 53.6268 23.336 53.9028 22.832C54.1908 22.316 54.3348 21.716 54.3348 21.032ZM58.416 20.996C58.416 20 58.62 19.118 59.028 18.35C59.448 17.582 60.012 16.988 60.72 16.568C61.44 16.136 62.238 15.92 63.114 15.92C63.762 15.92 64.398 16.064 65.022 16.352C65.658 16.628 66.162 17 66.534 17.468V12.68H68.604V26H66.534V24.506C66.198 24.986 65.73 25.382 65.13 25.694C64.542 26.006 63.864 26.162 63.096 26.162C62.232 26.162 61.44 25.946 60.72 25.514C60.012 25.07 59.448 24.458 59.028 23.678C58.62 22.886 58.416 21.992 58.416 20.996ZM66.534 21.032C66.534 20.348 66.39 19.754 66.102 19.25C65.826 18.746 65.46 18.362 65.004 18.098C64.548 17.834 64.056 17.702 63.528 17.702C63 17.702 62.508 17.834 62.052 18.098C61.596 18.35 61.224 18.728 60.936 19.232C60.66 19.724 60.522 20.312 60.522 20.996C60.522 21.68 60.66 22.28 60.936 22.796C61.224 23.312 61.596 23.708 62.052 23.984C62.52 24.248 63.012 24.38 63.528 24.38C64.056 24.38 64.548 24.248 65.004 23.984C65.46 23.72 65.826 23.336 66.102 22.832C66.39 22.316 66.534 21.716 66.534 21.032Z" fill="#AF9200"/>
</svg>
