<svg width="340" height="70" viewBox="0 0 340 70" fill="none" xmlns="http://www.w3.org/2000/svg">
<rect width="340" height="70" rx="10" fill="black"/>
<path d="M135.728 34.432C136.624 34.592 137.384 35.064 138.008 35.848C138.632 36.632 138.944 37.52 138.944 38.512C138.944 39.36 138.72 40.128 138.272 40.816C137.84 41.488 137.208 42.024 136.376 42.424C135.544 42.808 134.576 43 133.472 43H126.8V26.32H133.16C134.296 26.32 135.272 26.512 136.088 26.896C136.904 27.28 137.52 27.8 137.936 28.456C138.352 29.096 138.56 29.816 138.56 30.616C138.56 31.576 138.304 32.376 137.792 33.016C137.28 33.656 136.592 34.128 135.728 34.432ZM129.536 33.328H132.92C133.816 33.328 134.512 33.128 135.008 32.728C135.52 32.312 135.776 31.72 135.776 30.952C135.776 30.2 135.52 29.616 135.008 29.2C134.512 28.768 133.816 28.552 132.92 28.552H129.536V33.328ZM133.232 40.768C134.16 40.768 134.888 40.544 135.416 40.096C135.944 39.648 136.208 39.024 136.208 38.224C136.208 37.408 135.928 36.76 135.368 36.28C134.808 35.8 134.064 35.56 133.136 35.56H129.536V40.768H133.232ZM144.629 26.32V36.952C144.629 38.216 144.957 39.168 145.613 39.808C146.285 40.448 147.213 40.768 148.397 40.768C149.597 40.768 150.525 40.448 151.181 39.808C151.853 39.168 152.189 38.216 152.189 36.952V26.32H154.925V36.904C154.925 38.264 154.629 39.416 154.037 40.36C153.445 41.304 152.653 42.008 151.661 42.472C150.669 42.936 149.573 43.168 148.373 43.168C147.173 43.168 146.077 42.936 145.085 42.472C144.109 42.008 143.333 41.304 142.757 40.36C142.181 39.416 141.893 38.264 141.893 36.904V26.32H144.629ZM163.984 43.168C162.864 43.168 161.856 42.976 160.96 42.592C160.064 42.192 159.36 41.632 158.848 40.912C158.336 40.192 158.08 39.352 158.08 38.392H161.008C161.072 39.112 161.352 39.704 161.848 40.168C162.36 40.632 163.072 40.864 163.984 40.864C164.928 40.864 165.664 40.64 166.192 40.192C166.72 39.728 166.984 39.136 166.984 38.416C166.984 37.856 166.816 37.4 166.48 37.048C166.16 36.696 165.752 36.424 165.256 36.232C164.776 36.04 164.104 35.832 163.24 35.608C162.152 35.32 161.264 35.032 160.576 34.744C159.904 34.44 159.328 33.976 158.848 33.352C158.368 32.728 158.128 31.896 158.128 30.856C158.128 29.896 158.368 29.056 158.848 28.336C159.328 27.616 160 27.064 160.864 26.68C161.728 26.296 162.728 26.104 163.864 26.104C165.48 26.104 166.8 26.512 167.824 27.328C168.864 28.128 169.44 29.232 169.552 30.64H166.528C166.48 30.032 166.192 29.512 165.664 29.08C165.136 28.648 164.44 28.432 163.576 28.432C162.792 28.432 162.152 28.632 161.656 29.032C161.16 29.432 160.912 30.008 160.912 30.76C160.912 31.272 161.064 31.696 161.368 32.032C161.688 32.352 162.088 32.608 162.568 32.8C163.048 32.992 163.704 33.2 164.536 33.424C165.64 33.728 166.536 34.032 167.224 34.336C167.928 34.64 168.52 35.112 169 35.752C169.496 36.376 169.744 37.216 169.744 38.272C169.744 39.12 169.512 39.92 169.048 40.672C168.6 41.424 167.936 42.032 167.056 42.496C166.192 42.944 165.168 43.168 163.984 43.168ZM172.06 34.624C172.06 32.992 172.436 31.528 173.188 30.232C173.956 28.936 174.988 27.928 176.284 27.208C177.596 26.472 179.028 26.104 180.58 26.104C182.356 26.104 183.932 26.544 185.308 27.424C186.7 28.288 187.708 29.52 188.332 31.12H185.044C184.612 30.24 184.012 29.584 183.244 29.152C182.476 28.72 181.588 28.504 180.58 28.504C179.476 28.504 178.492 28.752 177.628 29.248C176.764 29.744 176.084 30.456 175.588 31.384C175.108 32.312 174.868 33.392 174.868 34.624C174.868 35.856 175.108 36.936 175.588 37.864C176.084 38.792 176.764 39.512 177.628 40.024C178.492 40.52 179.476 40.768 180.58 40.768C181.588 40.768 182.476 40.552 183.244 40.12C184.012 39.688 184.612 39.032 185.044 38.152H188.332C187.708 39.752 186.7 40.984 185.308 41.848C183.932 42.712 182.356 43.144 180.58 43.144C179.012 43.144 177.58 42.784 176.284 42.064C174.988 41.328 173.956 40.312 173.188 39.016C172.436 37.72 172.06 36.256 172.06 34.624ZM201.59 39.592H194.606L193.406 43H190.55L196.526 26.296H199.694L205.67 43H202.79L201.59 39.592ZM200.822 37.36L198.11 29.608L195.374 37.36H200.822ZM216.933 43L213.093 36.328H211.005V43H208.269V26.32H214.029C215.309 26.32 216.389 26.544 217.269 26.992C218.165 27.44 218.829 28.04 219.261 28.792C219.709 29.544 219.933 30.384 219.933 31.312C219.933 32.4 219.613 33.392 218.973 34.288C218.349 35.168 217.381 35.768 216.069 36.088L220.197 43H216.933ZM211.005 34.144H214.029C215.053 34.144 215.821 33.888 216.333 33.376C216.861 32.864 217.125 32.176 217.125 31.312C217.125 30.448 216.869 29.776 216.357 29.296C215.845 28.8 215.069 28.552 214.029 28.552H211.005V34.144Z" fill="#FFFAFA"/>
<path d="M238.678 37.9299C239.666 36.5841 240.25 34.9227 240.25 33.125C240.25 28.6377 236.612 25 232.125 25C227.638 25 224 28.6377 224 33.125C224 37.6123 227.638 41.25 232.125 41.25C233.923 41.25 235.585 40.6658 236.931 39.6769L236.93 39.6777C236.967 39.7277 237.008 39.7756 237.053 39.8208L241.866 44.6339C242.354 45.122 243.146 45.122 243.634 44.6339C244.122 44.1457 244.122 43.3543 243.634 42.8661L238.821 38.053C238.776 38.0078 238.728 37.9667 238.678 37.9299ZM239 33.125C239 36.922 235.922 40 232.125 40C228.328 40 225.25 36.922 225.25 33.125C225.25 29.328 228.328 26.25 232.125 26.25C235.922 26.25 239 29.328 239 33.125Z" fill="white"/>
</svg>
